<?xml version="1.0" encoding="UTF-8" standalone="no"?><!DOCTYPE svg PUBLIC "-//W3C//DTD SVG 1.1//EN" "http://www.w3.org/Graphics/SVG/1.1/DTD/svg11.dtd"><svg width="100%" height="100%" viewBox="0 0 438 332" version="1.1" xmlns="http://www.w3.org/2000/svg" xmlns:xlink="http://www.w3.org/1999/xlink" xml:space="preserve" xmlns:serif="http://www.serif.com/" style="fill-rule:evenodd;clip-rule:evenodd;stroke-linejoin:round;stroke-miterlimit:2;"><rect id="Scene" x="0" y="0" width="437.28" height="331.2" style="fill:none;"/><path d="M216.671,196.591c95.42,-15.417 176.446,-5.912 180.829,21.213c4.383,27.125 -69.527,61.665 -164.947,77.082c-95.419,15.418 -176.446,5.912 -180.829,-21.213c-4.382,-27.125 69.528,-61.665 164.947,-77.082Z" style="fill:#193055;fill-opacity:0.15;"/><g id="Chaudron"><path d="M182.476,187.33c0.272,2.556 0.412,5.156 0.412,7.79c0,39.076 -30.757,70.8 -68.64,70.8c-37.884,0 -68.64,-31.724 -68.64,-70.8c0,-2.63 0.139,-5.226 0.41,-7.779c10.644,9.124 37.191,15.596 68.223,15.596c31.043,0 57.599,-6.477 68.235,-15.607Z" style="fill:#30455a;"/><clipPath id="_clip1"><path d="M182.476,187.33c0.272,2.556 0.412,5.156 0.412,7.79c0,39.076 -30.757,70.8 -68.64,70.8c-37.884,0 -68.64,-31.724 -68.64,-70.8c0,-2.63 0.139,-5.226 0.41,-7.779c10.644,9.124 37.191,15.596 68.223,15.596c31.043,0 57.599,-6.477 68.235,-15.607Z"/></clipPath><g clip-path="url(#_clip1)"><path d="M82.991,260.908c31.823,21.47 73.789,14.995 93.655,-14.452c19.867,-29.446 10.161,-70.784 -21.662,-92.254c11.665,19.775 11.387,50.278 -4.861,74.36c-16.247,24.082 -44.428,35.759 -67.132,32.346Z" style="fill-opacity:0.2;"/><path d="M62.099,214.091c3.284,-1.038 7.375,2.632 9.131,8.189c1.756,5.558 0.515,10.912 -2.769,11.949c-3.284,1.038 -7.375,-2.632 -9.131,-8.189c-1.756,-5.558 -0.515,-10.912 2.769,-11.949Z" style="fill:#758a9e;"/></g><ellipse cx="114.241" cy="182.777" rx="73.2" ry="24" style="fill:#22313f;"/><ellipse cx="114.241" cy="179.657" rx="62.362" ry="16.768" style="fill:#30455a;"/><clipPath id="_clip2"><ellipse cx="114.241" cy="179.657" rx="62.362" ry="16.768"/></clipPath><g clip-path="url(#_clip2)"><ellipse cx="114.461" cy="186.908" rx="59.741" ry="13.775" style="fill:#5cad3e;"/><ellipse cx="114.461" cy="187.667" rx="53.021" ry="11.174" style="fill:#72e448;"/></g><circle cx="80.64" cy="157.883" r="12" style="fill:#71ad3e;"/><clipPath id="_clip3"><circle cx="80.64" cy="157.883" r="12"/></clipPath><g clip-path="url(#_clip3)"><ellipse cx="76.48" cy="155.283" rx="12" ry="11.48" style="fill:#93e448;"/><circle cx="75.483" cy="152.726" r="2.535" style="fill:#d8e9c8;"/></g><circle cx="159.412" cy="168.495" r="5.708" style="fill:#71ad3e;"/><clipPath id="_clip4"><circle cx="159.412" cy="168.495" r="5.708"/></clipPath><g clip-path="url(#_clip4)"><ellipse cx="157.433" cy="167.258" rx="5.708" ry="5.461" style="fill:#93e448;"/><circle cx="156.959" cy="166.042" r="1.206" style="fill:#d8e9c8;"/></g><circle cx="120.683" cy="141.803" r="15.12" style="fill:#71ad3e;"/><clipPath id="_clip5"><circle cx="120.683" cy="141.803" r="15.12"/></clipPath><g clip-path="url(#_clip5)"><ellipse cx="115.441" cy="138.527" rx="15.12" ry="14.465" style="fill:#78e448;"/><circle cx="114.185" cy="135.305" r="3.195" style="fill:#d8e9c8;"/></g><path d="M122.916,185.265c-0.048,-0.394 -0.073,-0.796 -0.073,-1.203c0,-5.441 4.418,-9.859 9.859,-9.859c5.441,0 9.858,4.418 9.858,9.859c0,0.294 -0.013,0.585 -0.038,0.874c-2.629,1.483 -6.192,2.394 -10.112,2.394c-3.622,0 -6.938,-0.778 -9.494,-2.065Z" style="fill:#71ad3e;"/><clipPath id="_clip6"><path d="M122.916,185.265c-0.048,-0.394 -0.073,-0.796 -0.073,-1.203c0,-5.441 4.418,-9.859 9.859,-9.859c5.441,0 9.858,4.418 9.858,9.859c0,0.294 -0.013,0.585 -0.038,0.874c-2.629,1.483 -6.192,2.394 -10.112,2.394c-3.622,0 -6.938,-0.778 -9.494,-2.065Z"/></clipPath><g clip-path="url(#_clip6)"><ellipse cx="129.284" cy="181.926" rx="9.858" ry="9.431" style="fill:#93e448;"/><circle cx="128.465" cy="179.825" r="2.083" style="fill:#d8e9c8;"/></g><path d="M79.346,189.974c-0.028,-0.228 -0.043,-0.461 -0.043,-0.697c0,-3.15 2.558,-5.708 5.709,-5.708c3.15,0 5.708,2.558 5.708,5.708c0,0.171 -0.007,0.34 -0.022,0.507c-1.522,0.858 -3.585,1.386 -5.855,1.386c-2.097,0 -4.017,-0.45 -5.497,-1.196Z" style="fill:#71ad3e;"/><clipPath id="_clip7"><path d="M79.346,189.974c-0.028,-0.228 -0.043,-0.461 -0.043,-0.697c0,-3.15 2.558,-5.708 5.709,-5.708c3.15,0 5.708,2.558 5.708,5.708c0,0.171 -0.007,0.34 -0.022,0.507c-1.522,0.858 -3.585,1.386 -5.855,1.386c-2.097,0 -4.017,-0.45 -5.497,-1.196Z"/></clipPath><g clip-path="url(#_clip7)"><ellipse cx="83.033" cy="188.041" rx="5.708" ry="5.461" style="fill:#93e448;"/><circle cx="82.559" cy="186.824" r="1.206" style="fill:#d8e9c8;"/></g><path d="M71.927,247.998c-4.186,2.574 -9.946,22.824 -9.191,25.909c1.505,6.154 24.53,-12.622 25.12,-15.443c0.797,-3.809 -11.742,-13.04 -15.929,-10.466Z" style="fill:#22313f;"/><path d="M155.861,247.998c4.187,2.574 9.946,22.824 9.192,25.909c-1.505,6.154 -24.53,-12.622 -25.12,-15.443c-0.797,-3.809 11.741,-13.04 15.928,-10.466Z" style="fill:#22313f;"/><path d="M142.787,210.9c1.465,1.273 -4.812,10.191 -1.281,10.582c4.521,0.501 24.505,-4.857 28.407,-7.577c2.754,-1.921 -5.692,-6.737 -4.994,-8.748c0.698,-2.01 7.546,-5.027 9.181,-3.317c1.635,1.709 4.364,11.011 0.629,13.573c-5.829,3.997 -28.596,10.67 -35.599,10.409c-4.526,-0.168 -7.028,-9.489 -6.419,-11.976c0.61,-2.487 8.61,-4.219 10.076,-2.946Z" style="fill:#22313f;"/></g><g id="Sorcière"><path d="M242.055,243.801c-2.481,3.159 3.19,15.101 1.085,19.977c-7.959,2.466 -19.172,8.267 -16.109,9.471c3.064,1.203 26.474,1.951 31.069,-2.893c0.103,-21.963 6.754,-22.339 3.681,-26.734c-2.741,-3.92 -17.245,-2.979 -19.726,0.179Z" style="fill:#454131;"/><path d="M293.345,245.1c0.661,3.744 13.324,8.725 15.51,13.456c-3.55,6.596 -6.828,17.534 -3.87,16.516c2.959,-1.018 19.317,-14.765 18.836,-20.991c-16.178,-15.584 -11.965,-19.906 -17.291,-21.138c-4.75,-1.098 -13.847,8.412 -13.185,12.157Z" style="fill:#454131;"/><path d="M201.898,145.57c5.782,1.227 19.014,13.195 28.961,14.57c9.946,1.375 24.502,-6.867 30.717,-6.319c4.023,0.355 10.088,7.686 6.573,9.609c-5.525,3.023 -27.727,10.305 -39.724,8.53c-11.997,-1.775 -27.835,-14.782 -32.256,-19.18c-2.171,-2.16 2.65,-7.863 5.729,-7.21Z" style="fill:#61aea9;"/><path d="M275.284,89.254l75.029,151.407l-125.538,9.845l50.509,-161.252Z" style="fill:#72889d;"/><clipPath id="_clip8"><path d="M275.284,89.254l75.029,151.407l-125.538,9.845l50.509,-161.252Z"/></clipPath><g clip-path="url(#_clip8)"><path d="M334.309,168.138l-100.957,7.917l1.014,12.921l100.957,-7.917l-1.014,-12.921Z" style="fill:#597085;"/><path d="M296.389,276.891c40.644,3.446 76.917,-25.47 80.952,-64.532c4.034,-39.062 -25.687,-73.573 -66.33,-77.018c10.487,17.547 17.697,44.415 14.781,72.648c-2.916,28.232 -15.504,53.421 -29.403,68.902Z" style="fill:#677e94;"/></g><path d="M257.921,126.117c-3.754,2.36 -6.231,7.819 -6.864,11.333c-0.593,3.29 -1.436,8.565 3.064,9.755c5.053,1.336 20.499,-10.547 26.759,-14.189c8.209,-4.775 18.664,-7.964 22.496,-14.461c2.101,-3.561 5.899,-11.058 1.505,-11.713c-4.393,-0.654 -23.049,3.778 -28.182,6.579c-4.156,2.269 -4.312,6.749 -7.494,8.664c-3.183,1.916 -8.106,2.034 -11.284,4.032Z" style="fill:#d0d0d0;"/><clipPath id="_clip9"><path d="M257.921,126.117c-3.754,2.36 -6.231,7.819 -6.864,11.333c-0.593,3.29 -1.436,8.565 3.064,9.755c5.053,1.336 20.499,-10.547 26.759,-14.189c8.209,-4.775 18.664,-7.964 22.496,-14.461c2.101,-3.561 5.899,-11.058 1.505,-11.713c-4.393,-0.654 -23.049,3.778 -28.182,6.579c-4.156,2.269 -4.312,6.749 -7.494,8.664c-3.183,1.916 -8.106,2.034 -11.284,4.032Z"/></clipPath><g clip-path="url(#_clip9)"><path d="M312.788,100.555l-33.019,2.59l3.057,38.972l33.018,-2.589l-3.056,-38.973Z" style="fill:#193055;fill-opacity:0.51;"/></g><path d="M262.075,79.242c12.057,-1.376 23.3,9.799 25.09,24.939c1.79,15.14 -6.546,28.549 -18.604,29.925c-12.057,1.376 -23.3,-9.799 -25.09,-24.939c-1.79,-15.14 6.546,-28.549 18.604,-29.925Z" style="fill:#dfd9ca;"/><path d="M254.717,90.261l12.105,10.238l7.261,4.16l1.758,20.108l11.608,19.91l12.165,7.264l-0.497,-39.958l-5.488,-24.773l-27.278,-8.732l-11.634,11.783Z" style="fill:#d1b6e4;"/><clipPath id="_clip10"><path d="M254.717,90.261l12.105,10.238l7.261,4.16l1.758,20.108l11.608,19.91l12.165,7.264l-0.497,-39.958l-5.488,-24.773l-27.278,-8.732l-11.634,11.783Z"/></clipPath><g clip-path="url(#_clip10)"><path d="M298.216,153.29l-3.247,-36.829l-14.795,-33.621l22.321,-7.197l23.063,72.027l-27.342,5.62Z" style="fill-opacity:0.09;"/></g><g><path d="M282.597,23.099l15.723,74.663l-59.398,-10.26l43.675,-64.403Z" style="fill:#72889d;"/><clipPath id="_clip11"><path d="M282.597,23.099l15.723,74.663l-59.398,-10.26l43.675,-64.403Z"/></clipPath><g clip-path="url(#_clip11)"><path d="M247.852,88.812c4.893,17.984 22.294,26.043 38.835,17.986c16.54,-8.057 25.996,-29.199 21.104,-47.182c-5.525,8.801 -15.355,18.55 -27.31,24.373c-11.955,5.823 -24.168,6.812 -32.629,4.823Z" style="fill:#677e94;"/><path d="M300.025,64.309l-47.768,-8.251l-1.155,5.747l47.767,8.251l1.156,-5.747Z" style="fill:#c5c3e2;"/></g><path d="M322.439,102.241c0.255,-1.269 -0.574,-2.478 -1.849,-2.698l-93.89,-16.218c-1.276,-0.22 -2.518,0.632 -2.773,1.901l-0.925,4.599c-0.255,1.269 0.573,2.479 1.849,2.699l93.89,16.217c1.276,0.221 2.518,-0.631 2.773,-1.9l0.925,-4.6Z" style="fill:#516475;"/></g><path d="M266.419,219.818c1.224,-6.288 14.984,-21.241 16.209,-32.012c1.225,-10.771 -9.252,-25.904 -8.859,-32.615c0.255,-4.344 8.769,-11.311 11.219,-7.653c3.85,5.75 13.502,29.157 11.885,42.155c-1.617,12.999 -16.509,30.816 -21.585,35.837c-2.493,2.466 -9.52,-2.363 -8.869,-5.712Z" style="fill:#61aea9;"/><path d="M194.533,139.922c4.215,-0.33 7.892,2.642 8.205,6.635c0.313,3.992 -2.855,7.501 -7.071,7.832c-4.215,0.33 -7.892,-2.642 -8.205,-6.635c-0.313,-3.992 2.855,-7.501 7.071,-7.832Z" style="fill:#dfd9ca;"/><path d="M265.98,218.39c4.215,-0.331 7.892,2.642 8.205,6.634c0.313,3.992 -2.855,7.502 -7.071,7.833c-4.215,0.33 -7.892,-2.643 -8.205,-6.635c-0.313,-3.992 2.855,-7.501 7.071,-7.832Z" style="fill:#dfd9ca;"/></g></svg>